....Why be the same as everyone else when YOU can be UNiQUE....            



Format                                   : AVI
Format/Info                              : Audio Video Interleave
File size                                : 1.38 GiB
Duration                                 : 1h 28mn
Overall bit rate                         : 2 252 Kbps
Recorded date                            : 2012-11-26T16:29:45.0095+01:00
Writing application                      : VirtualDubMod 1.5.10.2 (build 2540/release)
Writing library                          : VirtualDubMod build 2540/release

Video
ID                                       : 0
Format                                   : MPEG-4 Visual
Format profile                           : Advanced Simple@L5
Format settings, BVOP                    : 2
Format settings, QPel                    : No
Format settings, GMC                     : No warppoints
Format settings, Matrix                  : Default (H.263)
Muxing mode                              : Packed bitstream
Codec ID                                 : XVID
Codec ID/Hint                            : XviD
Duration                                 : 1h 28mn
Bit rate                                 : 2 115 Kbps
Width                                    : 720 pixels
Height                                   : 288 pixels
Display aspect ratio                     : 2.500
Frame rate                               : 24.000 fps
Color space                              : YUV
Chroma subsampling                       : 4:2:0
Bit depth                                : 8 bits
Scan type                                : Progressive
Compression mode                         : Lossy
Bits/(Pixel*Frame)                       : 0.425
Stream size                              : 1.30 GiB (94%)
Writing library                          : XviD 64

Audio
ID                                       : 1
Format                                   : MPEG Audio
Format version                           : Version 1
Format profile                           : Layer 3
Mode                                     : Joint stereo
Mode extension                           : MS Stereo
Codec ID                                 : 55
Codec ID/Hint                            : MP3
Duration                                 : 1h 28mn
Bit rate mode                            : Constant
Bit rate                                 : 128 Kbps
Channel(s)                               : 2 channels
Sampling rate                            : 48.0 KHz
Compression mode                         : Lossy
Stream size                              : 80.5 MiB (6%)
Alignment                                : Split accross interleaves
Interleave, duration                     : 42 ms (1.00 video frame)
Interleave, preload duration             : 500 ms
Writing library                          : LAME3.99r
Encoding settings                        : -m j -V 4 -q 3 -lowpass 17 -b 128
 
http://www.imdb.com/title/tt1234719/

Ratings: 5.7/10 from 5,512 users   Metascore: 32/100  
Reviews: 51 user | 69 critic | 30 from Metacritic.com
A group of teenagers look to save their town from an invasion of North Korean soldiers.

Source Used

BLOODYMARY/Echo...........Thanks

Vid was way oversharpened.........so ran... smoother which i dont usually do and whacked the levels up so you could actually see vid :-O:-O

Corrected AR and a whole lot more :P

Exact same copy as the cam but with line

Enjoy


